<svg width="164" height="43" viewBox="0 0 164 43" fill="none" xmlns="http://www.w3.org/2000/svg">
<path d="M8.5 34.4487L0.748 10.5467H5.304L11.05 28.9407H9.52L15.164 10.5467H18.598L24.242 28.9407H22.678L28.458 10.5467H33.014L25.228 34.4487H21.794L16.116 16.0887H17.612L11.968 34.4487H8.5ZM41.1666 34.7887C39.5119 34.7887 38.0159 34.4147 36.6786 33.6667C35.3639 32.8961 34.3099 31.8647 33.5166 30.5727C32.7459 29.2581 32.3606 27.7961 32.3606 26.1867C32.3606 24.5774 32.7459 23.1381 33.5166 21.8687C34.2872 20.5767 35.3412 19.5567 36.6786 18.8087C38.0159 18.0381 39.5006 17.6527 41.1326 17.6527C42.8099 17.6527 44.3059 18.0381 45.6206 18.8087C46.9579 19.5567 48.0119 20.5767 48.7826 21.8687C49.5532 23.1381 49.9386 24.5774 49.9386 26.1867C49.9386 27.7961 49.5532 29.2581 48.7826 30.5727C48.0119 31.8647 46.9579 32.8961 45.6206 33.6667C44.3059 34.4147 42.8212 34.7887 41.1666 34.7887ZM41.1326 30.6407C41.9712 30.6407 42.7079 30.4594 43.3426 30.0967C43.9999 29.7114 44.4986 29.1901 44.8386 28.5327C45.2012 27.8527 45.3826 27.0821 45.3826 26.2207C45.3826 25.3594 45.2012 24.6001 44.8386 23.9427C44.4759 23.2854 43.9772 22.7754 43.3426 22.4127C42.7079 22.0274 41.9712 21.8347 41.1326 21.8347C40.3166 21.8347 39.5912 22.0274 38.9566 22.4127C38.3219 22.7754 37.8232 23.2854 37.4606 23.9427C37.0979 24.6001 36.9166 25.3594 36.9166 26.2207C36.9166 27.0821 37.0979 27.8527 37.4606 28.5327C37.8232 29.1901 38.3219 29.7114 38.9566 30.0967C39.5912 30.4594 40.3166 30.6407 41.1326 30.6407ZM52.806 34.4487V18.0267H57.26V34.4487H52.806ZM57.26 25.3707L55.526 24.2147C55.73 22.1974 56.3193 20.6107 57.294 19.4547C58.2687 18.2761 59.674 17.6867 61.51 17.6867C62.3033 17.6867 63.0173 17.8227 63.652 18.0947C64.2867 18.3441 64.8647 18.7634 65.386 19.3527L62.598 22.5487C62.3487 22.2767 62.0427 22.0727 61.68 21.9367C61.34 21.8007 60.9433 21.7327 60.49 21.7327C59.538 21.7327 58.756 22.0387 58.144 22.6507C57.5547 23.2401 57.26 24.1467 57.26 25.3707ZM77.4225 34.4487L71.0645 25.9827L77.3885 18.0267H82.5225L75.1105 27.0027L75.2805 24.8267L82.8625 34.4487H77.4225ZM66.9505 34.4487V9.86673H71.4045V34.4487H66.9505ZM88.7894 25.5747V21.8007H94.3314C95.0567 21.8007 95.7141 21.6534 96.3034 21.3587C96.8927 21.0641 97.3574 20.6447 97.6974 20.1007C98.0374 19.5341 98.2074 18.8541 98.2074 18.0607C98.2074 17.2901 98.0374 16.6214 97.6974 16.0547C97.3574 15.4881 96.8927 15.0574 96.3034 14.7627C95.7141 14.4681 95.0567 14.3207 94.3314 14.3207H88.7894V10.5467H94.8074C96.3261 10.5467 97.6861 10.8527 98.8874 11.4647C100.111 12.0767 101.075 12.9494 101.777 14.0827C102.48 15.1934 102.831 16.5194 102.831 18.0607C102.831 19.6021 102.48 20.9394 101.777 22.0727C101.075 23.1834 100.111 24.0447 98.8874 24.6567C97.6861 25.2687 96.3261 25.5747 94.8074 25.5747H88.7894ZM85.3894 34.4487V10.5467H90.0134V34.4487H85.3894ZM112.819 34.7887C111.164 34.7887 109.668 34.4147 108.331 33.6667C107.016 32.8961 105.962 31.8647 105.169 30.5727C104.398 29.2581 104.013 27.7961 104.013 26.1867C104.013 24.5774 104.398 23.1381 105.169 21.8687C105.94 20.5767 106.994 19.5567 108.331 18.8087C109.668 18.0381 111.153 17.6527 112.785 17.6527C114.462 17.6527 115.958 18.0381 117.273 18.8087C118.61 19.5567 119.664 20.5767 120.435 21.8687C121.206 23.1381 121.591 24.5774 121.591 26.1867C121.591 27.7961 121.206 29.2581 120.435 30.5727C119.664 31.8647 118.61 32.8961 117.273 33.6667C115.958 34.4147 114.474 34.7887 112.819 34.7887ZM112.785 30.6407C113.624 30.6407 114.36 30.4594 114.995 30.0967C115.652 29.7114 116.151 29.1901 116.491 28.5327C116.854 27.8527 117.035 27.0821 117.035 26.2207C117.035 25.3594 116.854 24.6001 116.491 23.9427C116.128 23.2854 115.63 22.7754 114.995 22.4127C114.36 22.0274 113.624 21.8347 112.785 21.8347C111.969 21.8347 111.244 22.0274 110.609 22.4127C109.974 22.7754 109.476 23.2854 109.113 23.9427C108.75 24.6001 108.569 25.3594 108.569 26.2207C108.569 27.0821 108.75 27.8527 109.113 28.5327C109.476 29.1901 109.974 29.7114 110.609 30.0967C111.244 30.4594 111.969 30.6407 112.785 30.6407ZM124.458 34.4487V18.0267H128.946V34.4487H124.458ZM126.702 15.3747C125.977 15.3747 125.376 15.1367 124.9 14.6607C124.424 14.1621 124.186 13.5501 124.186 12.8247C124.186 12.1221 124.424 11.5214 124.9 11.0227C125.376 10.5241 125.977 10.2747 126.702 10.2747C127.45 10.2747 128.051 10.5241 128.504 11.0227C128.98 11.5214 129.218 12.1221 129.218 12.8247C129.218 13.5501 128.98 14.1621 128.504 14.6607C128.051 15.1367 127.45 15.3747 126.702 15.3747ZM143.942 34.4487V25.0307C143.942 24.0561 143.636 23.2627 143.024 22.6507C142.412 22.0387 141.619 21.7327 140.644 21.7327C140.009 21.7327 139.443 21.8687 138.944 22.1407C138.445 22.4127 138.049 22.7981 137.754 23.2967C137.482 23.7954 137.346 24.3734 137.346 25.0307L135.612 24.1467C135.612 22.8547 135.884 21.7327 136.428 20.7807C136.995 19.8061 137.765 19.0467 138.74 18.5027C139.737 17.9587 140.859 17.6867 142.106 17.6867C143.307 17.6867 144.384 17.9927 145.336 18.6047C146.288 19.1941 147.036 19.9761 147.58 20.9507C148.124 21.9027 148.396 22.9341 148.396 24.0447V34.4487H143.942ZM132.892 34.4487V18.0267H137.346V34.4487H132.892ZM154.199 34.4487V11.1927H158.653V34.4487H154.199ZM150.357 21.9367V18.0267H162.495V21.9367H150.357Z" fill="#1B4571"/>
</svg>
